<?xml version="1.0" encoding="UTF-8" standalone="no"?>
<!DOCTYPE svg PUBLIC "-//W3C//DTD SVG 1.1//EN" "http://www.w3.org/Graphics/SVG/1.1/DTD/svg11.dtd">
<svg width="100%" height="100%" viewBox="0 0 2087 671" version="1.1" xmlns="http://www.w3.org/2000/svg" xmlns:xlink="http://www.w3.org/1999/xlink" xml:space="preserve" xmlns:serif="http://www.serif.com/" style="fill-rule:evenodd;clip-rule:evenodd;stroke-linejoin:round;stroke-miterlimit:2;">
    <g id="Yarn-Spinner-Logo---Text" serif:id="Yarn Spinner Logo + Text" transform="matrix(0.980733,0,0,0.807461,-559.999,-110.622)">
        <rect x="571" y="137" width="2128" height="831" style="fill:none;"/>
        <clipPath id="_clip1">
            <rect x="571" y="137" width="2128" height="831"/>
        </clipPath>
        <g clip-path="url(#_clip1)">
            <g transform="matrix(1.2085,0,0,1.38499,930.205,905.826)">
                <path d="M-860,-742L2140,-742L2140,387.68C2140,387.68 1643.69,350.258 1280,387.68C868.668,430.003 359.175,405.413 0,387.68C-378.825,368.976 -860,387.68 -860,387.68L-860,-742Z" style="fill:rgb(197,226,155);"/>
                <path d="M2146.1,-795.261L2152.12,-794.093L2157.95,-792.165L2163.53,-789.506L2168.76,-786.154L2173.57,-782.159L2177.89,-777.578L2181.66,-772.478L2184.83,-766.933L2187.33,-761.025L2189.15,-754.84L2190.26,-748.467L2190.62,-742L2190.62,387.68L2190.22,394.435L2189.02,401.082L2187.04,407.517L2184.31,413.635L2180.87,419.341L2176.78,424.542L2172.11,429.157L2166.93,433.112L2161.32,436.343L2155.37,438.8L2149.17,440.444L2142.83,441.248L2136.44,441.199L2136.1,441.173L2135.07,441.097L2133.35,440.972L2132.23,440.892L2130.95,440.8L2129.49,440.697L2127.87,440.583L2126.09,440.459L2124.15,440.324L2122.05,440.18L2119.78,440.026L2117.37,439.863L2114.79,439.691L2112.07,439.511L2109.19,439.322L2106.17,439.125L2102.99,438.921L2099.68,438.71L2096.21,438.491L2092.61,438.266L2088.87,438.035L2084.98,437.797L2082.99,437.676L2080.97,437.554L2078.91,437.43L2076.82,437.306L2074.69,437.18L2072.53,437.052L2070.34,436.924L2068.12,436.794L2065.86,436.663L2063.57,436.531L2061.25,436.399L2058.9,436.265L2056.51,436.13L2054.1,435.994L2051.65,435.858L2049.18,435.721L2046.67,435.582L2044.13,435.444L2041.56,435.304L2038.97,435.164L2036.34,435.023L2033.68,434.882L2031,434.74L2028.29,434.597L2025.54,434.455L2022.77,434.311L2019.97,434.167L2017.14,434.024L2014.29,433.879L2011.41,433.735L2008.5,433.59L2005.56,433.445L2002.6,433.3L1999.6,433.155L1996.59,433.009L1993.54,432.864L1990.48,432.719L1987.38,432.574L1984.26,432.429L1981.11,432.284L1977.94,432.139L1974.75,431.995L1971.53,431.851L1968.28,431.707L1965.01,431.563L1961.72,431.42L1958.4,431.277L1955.06,431.135L1951.7,430.993L1948.31,430.852L1944.9,430.711L1941.47,430.571L1938.02,430.432L1934.54,430.293L1931.05,430.155L1927.53,430.018L1923.98,429.882L1920.42,429.746L1916.84,429.612L1913.23,429.478L1909.61,429.345L1905.96,429.214L1902.3,429.083L1898.61,428.954L1894.91,428.826L1891.18,428.698L1887.44,428.573L1883.68,428.448L1879.9,428.325L1876.1,428.203L1872.28,428.082L1868.45,427.963L1864.59,427.845L1860.72,427.729L1856.83,427.614L1852.93,427.501L1849,427.39L1845.07,427.28L1841.11,427.172L1837.14,427.066L1833.15,426.961L1829.15,426.859L1825.13,426.758L1821.09,426.659L1817.04,426.562L1812.98,426.467L1808.9,426.374L1804.81,426.283L1800.7,426.194L1796.58,426.108L1792.44,426.023L1788.29,425.941L1784.13,425.861L1779.95,425.783L1775.77,425.708L1771.57,425.635L1767.35,425.564L1765.24,425.53L1763.13,425.496L1761.01,425.463L1758.89,425.43L1756.77,425.399L1754.64,425.367L1752.51,425.337L1750.38,425.307L1748.25,425.277L1746.11,425.249L1743.97,425.221L1741.83,425.194L1739.68,425.167L1737.53,425.141L1735.38,425.116L1733.23,425.091L1731.07,425.068L1728.91,425.044L1726.75,425.022L1724.59,425L1722.43,424.979L1720.26,424.959L1718.09,424.939L1715.91,424.92L1713.74,424.902L1711.56,424.885L1709.38,424.868L1707.2,424.853L1705.01,424.837L1702.83,424.823L1700.64,424.809L1698.45,424.797L1696.25,424.785L1694.06,424.773L1691.86,424.763L1689.66,424.753L1687.46,424.744L1685.26,424.736L1683.05,424.729L1680.84,424.722L1678.63,424.717L1676.42,424.712L1674.21,424.708L1672,424.704L1669.78,424.702L1667.56,424.701L1665.34,424.7L1663.12,424.7L1660.9,424.701L1658.67,424.703L1656.45,424.705L1654.22,424.709L1651.99,424.713L1649.76,424.719L1647.53,424.725L1645.29,424.732L1643.06,424.74L1640.82,424.749L1638.58,424.759L1636.34,424.77L1634.1,424.781L1631.86,424.794L1629.61,424.807L1627.37,424.821L1625.12,424.837L1622.88,424.853L1620.63,424.87L1618.38,424.888L1616.13,424.908L1613.88,424.928L1611.62,424.949L1609.37,424.97L1607.11,424.993L1604.86,425.017L1602.6,425.042L1600.35,425.068L1598.09,425.095L1595.83,425.123L1593.57,425.152L1591.31,425.182L1589.05,425.212L1586.78,425.244L1584.52,425.277L1582.26,425.311L1579.99,425.346L1577.73,425.382L1575.46,425.419L1573.2,425.457L1570.93,425.496L1568.66,425.537L1566.4,425.578L1564.13,425.62L1561.86,425.664L1559.59,425.708L1557.32,425.754L1555.05,425.8L1552.79,425.848L1550.51,425.897L1548.25,425.946L1545.98,425.998L1543.7,426.05L1541.43,426.103L1539.16,426.157L1536.89,426.213L1534.62,426.269L1532.35,426.327L1530.08,426.386L1527.81,426.446L1525.54,426.507L1523.27,426.569L1521,426.632L1518.73,426.697L1516.46,426.763L1514.19,426.83L1511.92,426.898L1509.65,426.967L1507.38,427.038L1505.11,427.109L1502.84,427.182L1500.57,427.256L1498.31,427.331L1496.04,427.408L1493.77,427.486L1491.51,427.565L1489.24,427.645L1486.98,427.726L1484.71,427.808L1482.45,427.892L1480.18,427.977L1477.92,428.064L1475.66,428.151L1473.4,428.24L1471.14,428.33L1468.88,428.421L1466.62,428.514L1464.36,428.608L1462.1,428.703L1459.85,428.799L1457.59,428.897L1455.34,428.996L1453.08,429.096L1450.83,429.198L1448.58,429.301L1446.33,429.405L1444.08,429.511L1441.83,429.618L1439.59,429.726L1437.34,429.835L1435.1,429.946L1432.85,430.058L1430.61,430.172L1428.37,430.287L1426.13,430.403L1423.89,430.521L1421.66,430.64L1419.42,430.76L1417.19,430.882L1414.96,431.005L1412.73,431.129L1410.5,431.255L1408.27,431.383L1406.05,431.511L1403.82,431.641L1401.6,431.773L1399.38,431.905L1397.16,432.04L1394.94,432.175L1392.73,432.313L1390.51,432.451L1388.3,432.591L1386.09,432.732L1383.88,432.875L1381.68,433.02L1379.47,433.165L1377.27,433.313L1375.07,433.461L1372.87,433.611L1370.68,433.763L1368.48,433.916L1366.29,434.071L1364.1,434.227L1361.91,434.384L1359.73,434.543L1357.55,434.704L1355.37,434.866L1353.19,435.029L1351.01,435.194L1348.84,435.361L1346.67,435.529L1344.5,435.698L1342.33,435.869L1340.17,436.042L1338.01,436.216L1335.85,436.392L1333.69,436.569L1331.54,436.748L1329.39,436.928L1327.24,437.11L1325.1,437.293L1322.95,437.478L1320.81,437.665L1318.68,437.853L1316.54,438.043L1314.41,438.234L1312.28,438.427L1310.16,438.622L1308.04,438.817L1305.91,439.015L1303.8,439.214L1301.69,439.415L1299.58,439.618L1297.47,439.822L1295.36,440.028L1293.26,440.235L1291.17,440.444L1289.07,440.654L1286.98,440.867L1284.87,441.082L1282.45,441.331L1280,441.58L1277.55,441.828L1275.1,442.074L1272.64,442.318L1270.19,442.561L1267.73,442.803L1265.27,443.043L1262.81,443.281L1260.34,443.518L1257.88,443.753L1255.41,443.987L1252.94,444.219L1250.47,444.45L1247.99,444.679L1245.52,444.906L1243.04,445.132L1240.56,445.357L1238.08,445.58L1235.59,445.802L1233.11,446.022L1230.62,446.24L1228.13,446.458L1225.64,446.673L1223.15,446.887L1220.65,447.1L1218.15,447.311L1215.66,447.521L1213.16,447.729L1210.65,447.936L1208.15,448.141L1205.64,448.345L1203.14,448.547L1200.63,448.748L1198.12,448.948L1195.61,449.146L1193.09,449.342L1190.57,449.537L1188.06,449.731L1185.54,449.924L1183.02,450.114L1180.49,450.304L1177.97,450.492L1175.44,450.679L1172.91,450.864L1170.38,451.048L1167.85,451.23L1165.32,451.411L1162.79,451.591L1160.25,451.769L1157.71,451.946L1155.17,452.121L1152.63,452.295L1150.09,452.468L1147.55,452.639L1145,452.809L1142.45,452.977L1139.91,453.144L1137.36,453.31L1134.81,453.475L1132.25,453.638L1129.7,453.8L1127.14,453.96L1124.59,454.119L1122.03,454.277L1119.47,454.433L1116.91,454.588L1114.34,454.742L1111.78,454.894L1109.22,455.045L1106.65,455.195L1104.08,455.343L1101.51,455.49L1098.94,455.636L1096.37,455.781L1093.79,455.924L1091.22,456.066L1088.64,456.206L1086.07,456.346L1083.49,456.484L1080.91,456.62L1078.33,456.756L1075.74,456.89L1073.16,457.023L1070.58,457.154L1067.99,457.285L1065.4,457.414L1062.81,457.542L1060.22,457.668L1057.63,457.793L1055.04,457.917L1052.45,458.04L1049.85,458.162L1047.26,458.282L1044.66,458.401L1042.06,458.519L1039.46,458.635L1036.87,458.751L1034.27,458.865L1031.66,458.978L1029.06,459.09L1026.46,459.2L1023.85,459.309L1021.25,459.418L1018.64,459.524L1016.03,459.63L1013.42,459.735L1010.81,459.838L1008.2,459.94L1005.59,460.041L1002.98,460.141L1000.36,460.239L997.748,460.337L995.131,460.433L992.515,460.528L989.899,460.622L987.281,460.714L984.66,460.806L982.04,460.896L979.419,460.986L976.799,461.074L974.176,461.161L971.552,461.247L968.929,461.331L966.304,461.415L963.679,461.497L961.052,461.578L958.425,461.659L955.797,461.738L953.168,461.816L950.539,461.892L947.909,461.968L945.278,462.043L942.647,462.116L940.014,462.188L937.382,462.26L934.749,462.33L932.115,462.399L929.48,462.467L926.844,462.534L924.207,462.6L921.572,462.665L918.935,462.728L916.296,462.791L913.658,462.853L911.02,462.913L908.38,462.973L905.74,463.031L903.099,463.088L900.459,463.144L897.818,463.2L895.174,463.254L892.532,463.307L889.89,463.359L887.246,463.41L884.603,463.46L881.958,463.51L879.312,463.557L876.668,463.604L874.022,463.65L871.376,463.695L868.73,463.739L866.083,463.782L863.435,463.824L860.788,463.865L858.14,463.905L855.492,463.944L852.843,463.982L850.194,464.019L847.546,464.055L844.896,464.09L842.246,464.124L839.596,464.157L836.946,464.189L834.295,464.221L831.645,464.251L828.994,464.28L826.343,464.308L823.692,464.336L821.039,464.362L818.388,464.387L815.737,464.412L813.084,464.435L810.431,464.458L807.78,464.48L805.126,464.501L802.475,464.52L799.822,464.539L797.168,464.557L794.516,464.574L791.863,464.59L789.21,464.606L786.557,464.62L783.904,464.634L781.25,464.646L778.597,464.658L775.944,464.669L773.291,464.678L770.638,464.687L767.985,464.696L765.331,464.703L762.678,464.709L760.026,464.715L757.373,464.719L754.719,464.723L752.067,464.726L749.415,464.728L746.762,464.729L744.11,464.73L741.457,464.729L738.805,464.728L736.153,464.726L733.501,464.723L730.849,464.719L728.198,464.714L725.546,464.709L722.895,464.702L720.244,464.695L717.594,464.687L714.944,464.678L712.294,464.669L709.644,464.658L706.995,464.647L704.345,464.635L701.695,464.622L699.047,464.609L696.399,464.594L693.751,464.579L691.103,464.563L688.456,464.546L685.808,464.529L683.163,464.511L680.516,464.492L677.87,464.472L675.225,464.451L672.58,464.43L669.935,464.408L667.292,464.385L664.648,464.361L662.004,464.337L659.362,464.312L656.719,464.286L654.077,464.259L651.437,464.232L648.796,464.204L646.155,464.175L643.515,464.146L640.876,464.115L638.238,464.085L635.6,464.053L632.963,464.021L630.326,463.988L627.69,463.954L625.054,463.919L622.418,463.884L619.785,463.848L617.152,463.812L614.518,463.775L611.885,463.737L609.254,463.698L606.623,463.659L603.993,463.619L601.364,463.578L598.732,463.537L593.479,463.452L588.226,463.365L582.977,463.275L577.732,463.183L572.488,463.088L567.249,462.991L562.014,462.891L556.781,462.789L551.552,462.684L546.327,462.577L541.106,462.467L535.889,462.355L530.675,462.241L525.467,462.124L520.262,462.005L515.061,461.884L509.865,461.761L504.673,461.635L499.486,461.507L494.303,461.378L489.124,461.246L483.952,461.111L478.784,460.975L473.62,460.837L468.461,460.697L463.308,460.555L458.16,460.41L453.018,460.264L447.881,460.116L442.749,459.967L437.623,459.815L432.503,459.661L427.388,459.506L422.279,459.349L417.177,459.19L412.079,459.029L406.989,458.867L401.904,458.703L396.826,458.537L391.755,458.37L386.689,458.201L381.63,458.031L376.578,457.859L371.533,457.686L366.494,457.511L361.462,457.334L356.438,457.156L351.421,456.977L346.41,456.797L341.407,456.615L336.412,456.431L331.424,456.247L326.443,456.061L321.47,455.874L316.504,455.686L311.547,455.496L306.598,455.306L301.656,455.114L296.722,454.921L291.797,454.727L286.88,454.532L281.971,454.336L277.071,454.139L272.179,453.941L267.296,453.742L262.421,453.542L257.555,453.341L252.699,453.14L247.851,452.937L243.012,452.734L238.182,452.53L233.361,452.325L228.55,452.119L223.749,451.913L218.957,451.706L214.174,451.498L209.401,451.29L204.638,451.081L199.884,450.871L195.141,450.661L190.408,450.451L185.685,450.24L180.972,450.028L176.269,449.816L171.577,449.604L166.895,449.391L162.223,449.178L157.563,448.964L152.913,448.75L148.274,448.536L143.646,448.322L139.029,448.107L134.424,447.892L129.827,447.677L120.673,447.247L111.564,446.816L102.501,446.385L93.485,445.954L84.518,445.523L75.599,445.092L66.73,444.663L57.911,444.234L49.143,443.806L40.426,443.379L31.762,442.954L23.151,442.531L14.594,442.11L-2.35,441.274L-4.555,441.165L-6.758,441.058L-8.963,440.951L-11.171,440.846L-13.38,440.741L-15.593,440.637L-17.807,440.534L-20.023,440.432L-22.241,440.33L-24.462,440.229L-26.686,440.13L-28.912,440.031L-31.139,439.932L-33.369,439.835L-35.601,439.738L-37.834,439.642L-40.07,439.547L-42.308,439.453L-44.548,439.36L-46.789,439.267L-49.034,439.175L-51.279,439.084L-53.526,438.994L-55.776,438.905L-58.028,438.816L-60.28,438.728L-62.534,438.641L-64.791,438.555L-67.049,438.469L-69.309,438.385L-71.571,438.3L-73.833,438.217L-76.098,438.135L-78.364,438.053L-80.632,437.972L-82.902,437.892L-85.172,437.813L-87.445,437.734L-89.718,437.656L-91.995,437.579L-94.271,437.502L-96.547,437.427L-98.828,437.352L-101.108,437.278L-103.389,437.204L-105.673,437.132L-107.958,437.06L-110.243,436.988L-112.529,436.918L-114.817,436.848L-117.107,436.779L-119.397,436.71L-121.687,436.643L-123.98,436.576L-126.273,436.51L-128.567,436.444L-130.862,436.379L-133.159,436.315L-135.456,436.252L-137.753,436.189L-140.051,436.127L-142.352,436.066L-144.652,436.005L-146.953,435.946L-149.255,435.886L-151.558,435.828L-153.86,435.77L-156.164,435.713L-158.469,435.656L-160.775,435.601L-163.08,435.545L-165.386,435.491L-167.693,435.437L-170.001,435.384L-172.309,435.332L-174.617,435.28L-176.925,435.229L-179.231,435.178L-183.854,435.079L-188.475,434.983L-193.097,434.889L-197.719,434.798L-202.342,434.709L-206.966,434.623L-211.59,434.539L-216.213,434.458L-220.838,434.38L-225.461,434.303L-230.084,434.229L-234.706,434.158L-239.326,434.089L-243.946,434.022L-248.564,433.958L-253.18,433.896L-257.795,433.836L-262.407,433.779L-267.017,433.724L-271.625,433.671L-276.23,433.62L-280.831,433.571L-285.431,433.525L-290.026,433.481L-294.617,433.439L-299.205,433.399L-303.789,433.361L-308.369,433.326L-312.944,433.292L-317.515,433.261L-322.08,433.231L-326.641,433.204L-331.197,433.178L-335.747,433.155L-340.291,433.133L-344.83,433.114L-349.362,433.096L-353.888,433.08L-358.407,433.066L-362.92,433.054L-367.425,433.044L-371.924,433.035L-376.415,433.028L-380.898,433.024L-385.374,433.02L-389.842,433.019L-394.301,433.019L-398.753,433.021L-403.195,433.025L-407.628,433.03L-412.053,433.037L-416.469,433.046L-420.874,433.056L-425.27,433.067L-429.657,433.081L-434.033,433.096L-438.398,433.112L-442.753,433.13L-447.098,433.149L-451.432,433.17L-455.754,433.192L-460.064,433.215L-464.364,433.24L-468.651,433.267L-472.927,433.294L-477.19,433.323L-481.442,433.354L-485.68,433.385L-489.905,433.418L-494.118,433.452L-498.317,433.488L-502.502,433.524L-506.674,433.562L-510.832,433.601L-514.976,433.641L-519.106,433.683L-523.221,433.725L-527.321,433.768L-531.407,433.813L-535.477,433.859L-539.532,433.905L-543.571,433.953L-547.595,434.001L-551.602,434.051L-555.594,434.102L-559.569,434.153L-563.527,434.206L-567.469,434.259L-571.393,434.313L-575.301,434.368L-579.191,434.424L-583.062,434.481L-586.916,434.538L-590.752,434.596L-594.57,434.655L-598.37,434.715L-602.151,434.776L-605.911,434.837L-609.654,434.899L-613.378,434.961L-617.082,435.024L-620.765,435.088L-624.429,435.152L-628.073,435.217L-631.696,435.282L-635.299,435.348L-638.881,435.415L-642.441,435.482L-645.981,435.549L-649.5,435.617L-652.996,435.686L-656.471,435.754L-659.924,435.823L-663.353,435.893L-666.761,435.963L-670.147,436.033L-673.509,436.104L-676.848,436.174L-680.164,436.245L-683.456,436.317L-686.725,436.388L-689.97,436.46L-693.191,436.532L-696.386,436.604L-699.557,436.677L-702.704,436.749L-705.826,436.822L-708.922,436.894L-711.99,436.967L-718.059,437.112L-724.019,437.258L-729.874,437.404L-735.622,437.549L-741.26,437.694L-746.788,437.838L-752.202,437.981L-757.503,438.124L-762.688,438.265L-767.755,438.406L-772.703,438.544L-777.53,438.682L-782.235,438.817L-786.815,438.951L-791.269,439.083L-795.595,439.212L-799.793,439.339L-803.859,439.464L-807.793,439.586L-811.593,439.705L-815.256,439.821L-818.782,439.934L-822.169,440.044L-825.414,440.15L-828.517,440.252L-831.476,440.351L-834.288,440.446L-836.953,440.536L-839.469,440.623L-841.833,440.705L-844.045,440.782L-846.1,440.855L-849.748,440.985L-852.756,441.094L-855.114,441.181L-856.805,441.244L-858.181,441.297L-864.431,441.125L-870.615,440.139L-876.636,438.352L-882.403,435.792L-887.829,432.498L-892.83,428.52L-897.33,423.919L-901.261,418.765L-904.562,413.137L-907.183,407.12L-909.085,400.807L-910.238,394.294L-910.624,387.68L-910.624,-742L-910.255,-748.467L-909.153,-754.84L-907.334,-761.025L-904.825,-766.933L-901.663,-772.478L-897.892,-777.578L-893.57,-782.159L-888.758,-786.154L-883.526,-789.506L-877.951,-792.165L-872.115,-794.093L-866.102,-795.261L-860,-795.652L2140,-795.652L2146.1,-795.261ZM-860,-742L-860,387.68L-858.608,387.627L-856.888,387.562L-854.504,387.474L-851.468,387.364L-847.794,387.233L-845.721,387.16L-843.495,387.082L-841.115,386.999L-838.585,386.913L-835.904,386.821L-833.076,386.726L-830.102,386.627L-826.984,386.524L-823.722,386.417L-820.32,386.307L-816.777,386.194L-813.098,386.077L-809.281,385.957L-805.331,385.835L-801.248,385.71L-797.033,385.582L-792.689,385.452L-788.217,385.32L-783.62,385.186L-778.897,385.05L-774.052,384.912L-769.086,384.772L-764,384.632L-758.797,384.49L-753.477,384.347L-748.043,384.203L-742.496,384.058L-736.838,383.913L-731.071,383.767L-725.196,383.621L-719.215,383.475L-713.129,383.329L-710.048,383.256L-706.941,383.183L-703.809,383.11L-700.652,383.037L-697.469,382.965L-694.263,382.892L-691.031,382.82L-687.776,382.748L-684.497,382.676L-681.193,382.605L-677.867,382.533L-674.516,382.462L-671.143,382.392L-667.746,382.321L-664.327,382.251L-660.886,382.181L-657.421,382.112L-653.935,382.043L-650.427,381.974L-646.897,381.906L-643.346,381.839L-639.773,381.771L-636.179,381.705L-632.565,381.639L-628.929,381.573L-625.274,381.508L-621.597,381.443L-617.901,381.379L-614.185,381.316L-610.45,381.253L-606.695,381.191L-602.92,381.13L-599.127,381.069L-595.315,381.009L-591.484,380.95L-587.635,380.892L-583.768,380.834L-579.883,380.777L-575.98,380.721L-572.059,380.666L-568.121,380.612L-564.166,380.558L-560.194,380.506L-556.206,380.454L-552.201,380.403L-548.179,380.353L-544.142,380.305L-540.088,380.257L-536.019,380.21L-531.935,380.164L-527.835,380.119L-523.72,380.076L-519.59,380.033L-515.446,379.992L-511.287,379.952L-507.114,379.913L-502.928,379.875L-498.727,379.838L-494.512,379.802L-490.285,379.768L-486.044,379.735L-481.79,379.703L-477.524,379.673L-473.244,379.644L-468.953,379.616L-464.649,379.589L-460.334,379.564L-456.007,379.541L-451.668,379.519L-447.318,379.498L-442.957,379.478L-438.585,379.46L-434.202,379.444L-429.809,379.429L-425.406,379.416L-420.993,379.404L-416.57,379.394L-412.137,379.385L-407.695,379.378L-403.243,379.373L-398.783,379.37L-394.314,379.368L-389.836,379.367L-385.35,379.369L-380.856,379.372L-376.353,379.377L-371.843,379.383L-367.326,379.392L-362.801,379.402L-358.269,379.415L-353.73,379.429L-349.185,379.444L-344.633,379.462L-340.074,379.482L-335.51,379.504L-330.94,379.527L-326.364,379.553L-321.782,379.58L-317.196,379.61L-312.604,379.642L-308.008,379.676L-303.407,379.711L-298.801,379.749L-294.192,379.789L-289.578,379.831L-284.961,379.876L-280.34,379.922L-275.715,379.971L-271.088,380.022L-266.457,380.075L-261.824,380.131L-257.189,380.188L-252.551,380.248L-247.91,380.311L-243.268,380.375L-238.625,380.442L-233.98,380.512L-229.333,380.584L-224.686,380.658L-220.037,380.734L-215.388,380.814L-210.739,380.895L-206.089,380.979L-201.439,381.066L-196.79,381.155L-192.141,381.247L-187.492,381.341L-182.844,381.438L-178.198,381.538L-175.875,381.589L-173.552,381.64L-171.23,381.692L-168.908,381.745L-166.587,381.798L-164.266,381.852L-161.946,381.907L-159.626,381.963L-157.306,382.019L-154.987,382.076L-152.669,382.133L-150.351,382.191L-148.034,382.25L-145.717,382.31L-143.401,382.37L-141.086,382.431L-138.772,382.493L-136.458,382.555L-134.145,382.618L-131.833,382.682L-129.522,382.747L-127.212,382.812L-124.902,382.878L-122.593,382.944L-120.286,383.012L-117.979,383.08L-115.673,383.149L-113.369,383.218L-111.065,383.288L-108.762,383.36L-106.461,383.431L-104.16,383.504L-101.861,383.577L-99.563,383.651L-97.266,383.726L-94.97,383.801L-92.676,383.877L-90.383,383.954L-88.091,384.032L-85.8,384.111L-83.511,384.19L-81.224,384.27L-78.937,384.351L-76.652,384.432L-74.369,384.514L-72.087,384.598L-69.806,384.681L-67.527,384.766L-65.25,384.851L-62.974,384.938L-60.7,385.025L-58.427,385.112L-56.156,385.201L-53.887,385.29L-51.619,385.381L-49.353,385.472L-47.089,385.563L-44.827,385.656L-42.567,385.749L-40.308,385.843L-38.052,385.938L-35.797,386.034L-33.544,386.131L-31.293,386.228L-29.044,386.327L-26.797,386.426L-24.552,386.526L-22.31,386.626L-20.069,386.728L-17.83,386.83L-15.594,386.933L-13.359,387.038L-11.127,387.142L-8.897,387.248L-6.669,387.355L-4.444,387.462L-2.221,387.571L0,387.68L16.945,388.516L25.499,388.937L34.105,389.36L42.764,389.785L51.474,390.211L60.235,390.639L69.046,391.067L77.907,391.496L86.816,391.926L95.773,392.357L104.777,392.787L113.827,393.218L122.924,393.648L132.065,394.078L136.653,394.293L141.251,394.507L145.861,394.721L150.481,394.935L155.112,395.149L159.754,395.363L164.406,395.576L169.069,395.789L173.742,396.001L178.425,396.213L183.119,396.425L187.822,396.636L192.536,396.846L197.26,397.057L201.993,397.266L206.736,397.475L211.489,397.684L216.252,397.892L221.024,398.099L225.805,398.305L230.596,398.511L235.396,398.716L240.205,398.921L245.023,399.125L249.85,399.327L254.686,399.529L259.531,399.731L264.385,399.931L269.247,400.13L274.118,400.329L278.997,400.526L283.884,400.723L288.78,400.918L293.683,401.113L298.595,401.306L303.515,401.498L308.443,401.69L313.378,401.88L318.322,402.069L323.273,402.256L328.231,402.443L333.197,402.628L338.17,402.812L343.151,402.995L348.139,403.176L353.134,403.356L358.135,403.535L363.144,403.712L368.16,403.888L373.182,404.062L378.211,404.235L383.247,404.407L388.289,404.576L393.337,404.745L398.392,404.911L403.453,405.076L408.52,405.24L413.593,405.401L418.672,405.562L423.757,405.72L428.847,405.876L433.944,406.031L439.046,406.184L444.153,406.335L449.266,406.485L454.384,406.632L459.507,406.778L464.636,406.921L469.769,407.063L474.908,407.203L480.051,407.34L485.199,407.476L490.352,407.61L495.51,407.741L500.672,407.87L505.838,407.998L511.009,408.123L516.184,408.246L521.363,408.366L526.546,408.485L531.734,408.601L536.925,408.715L542.12,408.826L547.319,408.935L552.521,409.042L557.727,409.146L562.936,409.248L568.149,409.348L573.365,409.445L578.584,409.539L583.806,409.631L589.031,409.72L594.26,409.807L599.491,409.891L602.107,409.932L604.724,409.973L607.342,410.012L609.961,410.052L612.58,410.09L615.2,410.128L617.82,410.165L620.441,410.201L623.063,410.237L625.685,410.272L628.308,410.306L630.931,410.34L633.555,410.373L636.179,410.405L638.804,410.436L641.43,410.467L644.056,410.497L646.682,410.526L649.309,410.555L651.937,410.583L654.565,410.61L657.193,410.637L659.822,410.662L662.451,410.687L665.081,410.711L667.711,410.735L670.341,410.758L672.972,410.78L675.603,410.801L678.235,410.821L680.867,410.841L683.499,410.86L686.132,410.878L688.765,410.896L691.398,410.912L694.032,410.928L696.665,410.943L699.3,410.958L701.934,410.971L704.569,410.984L707.203,410.996L709.838,411.007L712.474,411.017L715.109,411.027L717.745,411.036L720.381,411.044L723.017,411.051L725.653,411.057L728.29,411.062L730.926,411.067L733.563,411.071L736.2,411.074L738.837,411.076L741.473,411.077L744.111,411.078L746.748,411.078L749.385,411.076L752.022,411.074L754.659,411.071L757.297,411.068L759.934,411.063L762.572,411.058L765.209,411.051L767.846,411.044L770.484,411.036L773.121,411.027L775.758,411.017L778.395,411.007L781.032,410.995L783.669,410.982L786.306,410.969L788.943,410.955L791.58,410.94L794.217,410.924L796.853,410.907L799.489,410.889L802.125,410.87L804.761,410.85L807.397,410.83L810.033,410.808L812.668,410.786L815.303,410.762L817.938,410.738L820.573,410.713L823.208,410.686L825.842,410.659L828.476,410.631L831.109,410.602L833.743,410.572L836.376,410.541L839.009,410.509L841.641,410.476L844.273,410.442L846.905,410.408L849.536,410.372L852.167,410.335L854.798,410.297L857.428,410.259L860.058,410.219L862.688,410.178L865.317,410.137L867.945,410.094L870.573,410.05L873.201,410.006L875.828,409.96L878.455,409.913L881.081,409.866L883.707,409.817L886.332,409.767L888.957,409.717L891.581,409.665L894.205,409.612L896.828,409.558L899.45,409.503L902.072,409.448L904.693,409.391L907.314,409.333L909.934,409.274L912.554,409.214L915.173,409.153L917.791,409.09L920.408,409.027L923.025,408.963L925.641,408.897L928.257,408.831L930.872,408.764L933.486,408.695L936.099,408.625L938.712,408.555L941.323,408.483L943.935,408.41L946.545,408.336L949.154,408.261L951.763,408.185L954.371,408.107L956.978,408.029L959.585,407.949L962.19,407.869L964.795,407.787L967.398,407.704L970.001,407.62L972.603,407.535L975.205,407.449L977.805,407.361L980.404,407.273L983.003,407.183L985.6,407.092L988.196,407L990.792,406.907L993.387,406.813L995.98,406.718L998.573,406.621L1001.16,406.523L1003.75,406.424L1006.35,406.324L1008.93,406.223L1011.52,406.121L1014.11,406.017L1016.69,405.912L1019.28,405.806L1021.86,405.699L1024.44,405.591L1027.02,405.481L1029.6,405.371L1032.18,405.259L1034.76,405.146L1037.34,405.031L1039.91,404.916L1042.49,404.799L1045.06,404.681L1047.63,404.562L1050.2,404.441L1052.77,404.32L1055.34,404.197L1057.9,404.073L1060.47,403.947L1063.03,403.821L1065.6,403.693L1068.16,403.564L1070.72,403.433L1073.28,403.302L1075.84,403.169L1078.39,403.035L1080.95,402.899L1083.5,402.763L1086.05,402.625L1088.6,402.486L1091.15,402.345L1093.7,402.203L1096.25,402.06L1098.79,401.916L1101.34,401.77L1103.88,401.624L1106.42,401.475L1108.96,401.326L1111.5,401.175L1114.03,401.023L1116.57,400.869L1119.1,400.715L1121.63,400.559L1124.16,400.401L1126.69,400.243L1129.22,400.082L1131.75,399.921L1134.27,399.758L1136.79,399.594L1139.32,399.429L1141.83,399.262L1144.35,399.094L1146.87,398.925L1149.38,398.754L1151.89,398.582L1154.41,398.408L1156.92,398.234L1159.42,398.057L1161.93,397.88L1164.43,397.701L1166.94,397.52L1169.44,397.339L1171.94,397.156L1174.43,396.971L1176.93,396.785L1179.42,396.598L1181.91,396.409L1184.4,396.219L1186.89,396.028L1189.38,395.835L1191.87,395.641L1194.35,395.445L1196.83,395.248L1199.31,395.049L1201.79,394.849L1204.26,394.648L1206.73,394.445L1209.21,394.241L1211.68,394.035L1214.14,393.828L1216.61,393.62L1219.07,393.409L1221.54,393.198L1224,392.985L1226.45,392.771L1228.91,392.555L1231.36,392.338L1233.81,392.119L1236.26,391.899L1238.71,391.677L1241.16,391.454L1243.6,391.229L1246.04,391.003L1248.48,390.775L1250.92,390.546L1253.36,390.316L1255.79,390.084L1258.22,389.85L1260.65,389.615L1263.08,389.378L1265.5,389.14L1267.92,388.901L1270.34,388.659L1272.76,388.417L1275.17,388.173L1277.59,387.927L1280,387.68L1282.13,387.461L1284.27,387.245L1286.41,387.03L1288.55,386.816L1290.69,386.605L1292.84,386.395L1294.99,386.187L1297.14,385.98L1299.3,385.775L1301.46,385.572L1303.62,385.37L1305.78,385.17L1307.95,384.972L1310.12,384.776L1312.29,384.581L1314.46,384.387L1316.64,384.196L1318.82,384.006L1321,383.817L1323.19,383.63L1325.38,383.445L1327.57,383.262L1329.76,383.08L1331.95,382.899L1334.15,382.72L1336.35,382.543L1338.55,382.367L1340.76,382.193L1342.96,382.021L1345.17,381.85L1347.38,381.681L1349.59,381.513L1351.81,381.347L1354.02,381.182L1356.24,381.019L1358.46,380.857L1360.69,380.697L1362.91,380.539L1365.14,380.382L1367.37,380.226L1369.6,380.072L1371.83,379.919L1374.07,379.768L1376.3,379.619L1378.54,379.471L1380.78,379.324L1383.02,379.179L1385.27,379.036L1387.51,378.894L1389.76,378.753L1392.01,378.614L1394.26,378.476L1396.51,378.34L1398.76,378.205L1401.02,378.072L1403.27,377.94L1405.53,377.809L1407.79,377.68L1410.05,377.553L1412.31,377.427L1414.57,377.302L1416.84,377.178L1419.1,377.056L1421.37,376.936L1423.64,376.816L1425.91,376.699L1428.18,376.582L1430.45,376.467L1432.73,376.353L1435,376.241L1437.27,376.13L1439.55,376.021L1441.83,375.912L1444.11,375.805L1446.38,375.7L1448.66,375.596L1450.94,375.493L1453.23,375.391L1455.51,375.291L1457.79,375.192L1460.08,375.094L1462.36,374.998L1464.65,374.903L1466.93,374.809L1469.22,374.717L1471.51,374.626L1473.8,374.536L1476.09,374.447L1478.38,374.36L1480.67,374.274L1482.96,374.189L1485.25,374.105L1487.54,374.023L1489.83,373.942L1492.12,373.862L1494.42,373.784L1496.71,373.706L1499,373.63L1501.3,373.555L1503.59,373.482L1505.88,373.409L1508.18,373.338L1510.47,373.268L1512.77,373.199L1515.06,373.132L1517.36,373.065L1519.65,373L1521.95,372.936L1524.24,372.873L1526.54,372.811L1528.83,372.75L1531.13,372.691L1533.42,372.633L1535.72,372.575L1538.01,372.519L1540.3,372.464L1542.6,372.411L1544.89,372.358L1547.18,372.307L1549.48,372.256L1551.77,372.207L1554.06,372.159L1556.35,372.112L1558.64,372.066L1560.94,372.021L1563.23,371.977L1565.52,371.934L1567.81,371.893L1570.1,371.852L1572.38,371.813L1574.67,371.774L1576.96,371.737L1579.24,371.7L1581.53,371.665L1583.82,371.631L1586.1,371.598L1588.38,371.565L1590.66,371.534L1592.95,371.504L1595.23,371.475L1597.51,371.447L1599.79,371.42L1602.07,371.394L1604.34,371.368L1606.62,371.344L1608.89,371.321L1611.17,371.299L1613.44,371.278L1615.71,371.258L1617.98,371.238L1620.25,371.22L1622.52,371.203L1624.79,371.186L1627.05,371.171L1629.32,371.156L1631.58,371.143L1633.84,371.13L1636.1,371.118L1638.36,371.108L1640.62,371.098L1642.88,371.089L1645.13,371.081L1647.38,371.074L1649.63,371.067L1651.88,371.062L1654.13,371.057L1656.38,371.054L1658.62,371.051L1660.87,371.049L1663.11,371.048L1665.35,371.048L1667.59,371.049L1669.82,371.05L1672.06,371.053L1674.29,371.056L1676.52,371.06L1678.75,371.065L1680.98,371.071L1683.2,371.077L1685.42,371.085L1687.64,371.093L1689.86,371.102L1692.08,371.112L1694.3,371.122L1696.51,371.134L1698.72,371.146L1700.93,371.159L1703.13,371.172L1705.34,371.187L1707.54,371.202L1709.74,371.218L1711.93,371.235L1714.13,371.252L1716.32,371.271L1718.51,371.29L1720.7,371.309L1722.88,371.33L1725.06,371.351L1727.24,371.373L1729.42,371.395L1731.59,371.419L1733.77,371.443L1735.93,371.467L1738.1,371.493L1740.27,371.519L1742.43,371.546L1744.59,371.573L1746.74,371.601L1748.89,371.63L1751.04,371.66L1753.19,371.69L1755.34,371.721L1757.48,371.752L1759.61,371.784L1761.75,371.817L1763.88,371.85L1766.01,371.884L1768.14,371.919L1772.38,371.99L1776.61,372.063L1780.83,372.139L1785.03,372.218L1789.22,372.298L1793.4,372.381L1797.57,372.466L1801.72,372.553L1805.85,372.643L1809.97,372.734L1814.08,372.828L1818.17,372.924L1822.25,373.021L1826.31,373.121L1830.36,373.222L1834.39,373.326L1838.4,373.431L1842.4,373.538L1846.38,373.647L1850.35,373.757L1854.3,373.869L1858.23,373.983L1862.14,374.099L1866.04,374.215L1869.92,374.334L1873.78,374.454L1877.62,374.575L1881.44,374.698L1885.25,374.822L1889.04,374.947L1892.8,375.074L1896.55,375.202L1900.28,375.331L1903.99,375.461L1907.68,375.593L1911.34,375.725L1914.99,375.859L1918.62,375.993L1922.23,376.128L1925.81,376.265L1929.37,376.402L1932.92,376.54L1936.44,376.679L1939.93,376.818L1943.41,376.959L1946.86,377.1L1950.29,377.241L1953.7,377.383L1957.09,377.526L1960.45,377.669L1963.79,377.813L1967.1,377.957L1970.39,378.101L1973.65,378.246L1976.89,378.391L1980.11,378.537L1983.3,378.682L1986.47,378.828L1989.61,378.974L1992.72,379.12L1995.81,379.266L1998.88,379.413L2001.91,379.559L2004.92,379.705L2007.9,379.851L2010.86,379.997L2013.79,380.142L2016.69,380.288L2019.57,380.433L2022.41,380.578L2025.23,380.723L2028.02,380.867L2030.78,381.011L2033.51,381.154L2036.22,381.297L2038.89,381.439L2041.53,381.581L2044.15,381.722L2046.73,381.863L2049.29,382.003L2051.81,382.142L2054.31,382.28L2056.77,382.417L2059.2,382.554L2061.6,382.69L2063.97,382.824L2066.31,382.958L2068.61,383.091L2070.89,383.223L2073.13,383.353L2075.34,383.483L2077.51,383.611L2079.65,383.738L2081.76,383.864L2083.84,383.989L2085.88,384.112L2087.89,384.234L2091.8,384.473L2095.57,384.706L2099.21,384.933L2102.7,385.154L2106.05,385.367L2109.25,385.573L2112.3,385.772L2115.21,385.963L2117.96,386.145L2120.57,386.319L2123.01,386.484L2125.3,386.639L2127.43,386.786L2129.4,386.922L2131.21,387.048L2132.86,387.164L2134.34,387.269L2135.65,387.362L2136.79,387.445L2138.57,387.574L2139.64,387.653L2140,387.68L2140,-742L-860,-742Z" style="fill:rgb(145,180,144);"/>
            </g>
            <g transform="matrix(3.9113,0,0,4.52196,688.005,198.779)">
                <g id="Logo">
                    <g transform="matrix(0.997352,-0.0727304,-0.0727304,-0.997352,11.9118,104.038)">
                        <path d="M-0.022,0.611L16.793,0.611" style="fill:none;fill-rule:nonzero;"/>
                    </g>
                    <g transform="matrix(1,0,0,1,11.8432,100.641)">
                        <path d="M0,4.289C-0.778,4.289 -1.437,3.687 -1.494,2.898C-1.555,2.072 -0.934,1.353 -0.107,1.293L16.663,0.07C17.474,0 18.208,0.63 18.269,1.457C18.329,2.283 17.708,3.002 16.882,3.062L0.111,4.285C0.074,4.288 0.037,4.289 0,4.289" style="fill:white;fill-rule:nonzero;"/>
                    </g>
                    <g transform="matrix(1,0,0,1,26.1713,57.7235)">
                        <path d="M0,90.325C11.861,90.325 16.131,71.462 6.168,51.535C-3.795,31.609 -12.335,24.967 -5.061,4.724L59.718,0C52.443,20.243 60.983,26.885 70.946,46.811C80.909,66.738 76.64,85.601 64.778,85.601L0,90.325" style="fill:white;fill-rule:nonzero;"/>
                    </g>
                    <g transform="matrix(-0.997351,0.0727402,0.0727402,0.997351,1.73888,105.22)">
                        <path d="M-15.397,20.517L0.784,20.517C3.528,3.792 -6.359,-1.332 -10.145,-1.055C-13.93,-0.779 -20.677,2.386 -16.452,16.825L-15.397,20.517Z" style="fill:rgb(200,212,194);fill-rule:nonzero;"/>
                    </g>
                    <g transform="matrix(1,0,0,1,31.558,76.3928)">
                        <path d="M0,0.186L4.235,-4.916C4.453,-5.178 4.492,-5.545 4.337,-5.849C4.179,-6.152 3.846,-6.337 3.517,-6.306L-2.398,-5.855C-2.627,-5.838 -2.841,-5.728 -2.987,-5.55L-7.748,0.184C-8.041,0.537 -8.001,1.058 -7.658,1.362L-2.084,6.309C-1.928,6.447 -1.728,6.523 -1.52,6.523C-1.498,6.523 -1.477,6.522 -1.455,6.52L4.46,6.07C4.801,6.044 5.092,5.816 5.2,5.494C5.311,5.17 5.215,4.813 4.96,4.586L0,0.186Z" style="fill:rgb(55,137,95);fill-rule:nonzero;"/>
                    </g>
                    <g transform="matrix(1,0,0,1,44.5971,69.2147)">
                        <path d="M0,12.433C0.156,12.572 0.356,12.647 0.564,12.647C0.586,12.647 0.607,12.646 0.629,12.645L6.544,12.194C6.885,12.168 7.176,11.941 7.284,11.618C7.395,11.294 7.299,10.937 7.044,10.711L2.084,6.31L6.319,1.209C6.537,0.947 6.576,0.579 6.421,0.276C6.264,-0.028 5.939,-0.214 5.601,-0.181L-0.314,0.269C-0.543,0.287 -0.757,0.396 -0.903,0.574L-5.664,6.308C-5.957,6.661 -5.917,7.182 -5.574,7.487L0,12.433Z" style="fill:rgb(55,137,95);fill-rule:nonzero;"/>
                    </g>
                    <g transform="matrix(1,0,0,1,53.4906,95.9451)">
                        <path d="M0,-3.525C0.36,0.618 4.017,3.704 8.139,3.34L12.828,3.106L19.752,9.153C19.91,9.291 20.109,9.363 20.312,9.363C20.439,9.363 20.566,9.334 20.687,9.275C20.993,9.124 21.181,8.803 21.159,8.461L20.788,2.383C24.51,1.642 27.165,-1.806 26.828,-5.671C26.468,-9.813 22.796,-12.888 18.665,-12.535L6.862,-11.695C2.719,-11.336 -0.36,-7.671 0,-3.525" style="fill:rgb(55,137,95);fill-rule:nonzero;"/>
                    </g>
                    <g transform="matrix(1,0,0,1,66.2914,115.18)">
                        <path d="M0,2.186C1.326,0.662 1.979,-1.281 1.841,-3.284C1.701,-5.287 0.786,-7.121 -0.739,-8.447C-2.263,-9.773 -4.203,-10.429 -6.222,-10.287L-17.998,-9.282C-22.145,-8.989 -25.282,-5.38 -24.995,-1.233C-24.727,2.638 -21.567,5.632 -17.776,5.784L-17.198,11.846C-17.166,12.187 -16.932,12.476 -16.604,12.577C-16.521,12.603 -16.437,12.615 -16.353,12.615C-16.105,12.615 -15.865,12.507 -15.701,12.311L-9.8,5.262L-5.163,4.766C-3.16,4.626 -1.326,3.711 0,2.186" style="fill:rgb(55,137,95);fill-rule:nonzero;"/>
                    </g>
                    <g transform="matrix(1,0,0,1,94.7416,129.529)">
                        <path d="M0,-2.493L-5.575,-7.44C-5.748,-7.593 -5.98,-7.671 -6.204,-7.652L-12.118,-7.2C-12.459,-7.175 -12.75,-6.947 -12.858,-6.624C-12.969,-6.301 -12.873,-5.944 -12.618,-5.717L-7.659,-1.317L-11.894,3.785C-12.111,4.048 -12.15,4.415 -11.995,4.718C-11.848,5.002 -11.556,5.178 -11.239,5.178C-11.218,5.178 -11.196,5.177 -11.175,5.175L-5.261,4.725C-5.031,4.707 -4.818,4.598 -4.671,4.42L0.09,-1.314C0.383,-1.667 0.343,-2.188 0,-2.493" style="fill:rgb(55,137,95);fill-rule:nonzero;"/>
                    </g>
                    <g transform="matrix(1,0,0,1,74.0434,135.529)">
                        <path d="M0,-12.387C-0.173,-12.54 -0.406,-12.618 -0.629,-12.598L-6.543,-12.148C-6.884,-12.122 -7.175,-11.895 -7.283,-11.572C-7.394,-11.248 -7.298,-10.891 -7.043,-10.664L-2.084,-6.263L-6.318,-1.162C-6.536,-0.899 -6.575,-0.532 -6.42,-0.229C-6.272,0.055 -5.98,0.231 -5.664,0.231C-5.643,0.231 -5.621,0.23 -5.6,0.229L0.314,-0.222C0.544,-0.24 0.757,-0.349 0.904,-0.527L5.665,-6.261C5.958,-6.614 5.918,-7.135 5.575,-7.44L0,-12.387Z" style="fill:rgb(55,137,95);fill-rule:nonzero;"/>
                    </g>
                    <g transform="matrix(1,0,0,1,32.3139,140.997)">
                        <path d="M0,-31.806C9.963,-11.88 5.693,6.984 -6.168,6.984C-18.028,6.984 -16.131,-5.554 -12.968,-20.261C-9.805,-34.969 -16.763,-37.635 -20.559,-37.635L-3.788,-38.79L0,-31.806Z" style="fill:rgb(161,188,149);fill-rule:nonzero;"/>
                    </g>
                    <g transform="matrix(1,0,0,1,89.9897,54.4211)">
                        <path d="M0,40.043C1.764,43.18 3.762,46.734 5.786,50.784C12.764,64.739 12.184,76.977 8.515,82.914C6.699,85.851 4.087,87.403 0.96,87.403C0.924,87.403 0.887,87.404 0.851,87.407L-55.474,91.515C-54.829,90.837 -54.239,90.068 -53.712,89.215C-49.391,82.223 -49.653,70.559 -54.139,59.054C-54.783,57.395 -55.515,55.738 -56.334,54.1L-56.357,54.056L-56.508,53.778C-58.496,49.83 -60.441,46.36 -62.163,43.297C-69.023,31.094 -72.863,24.261 -67.789,9.451L-54.591,8.488L-54.582,8.488L-52.965,8.37L-40.818,7.484C-40.812,7.484 -40.805,7.484 -40.797,7.483L-38.562,7.32C-38.56,7.32 -38.558,7.319 -38.556,7.319L-28.5,6.585L-28.478,6.585L-26.186,6.417L-6.293,4.966L-6.261,5.006C-11.108,20.279 -6.629,28.251 0,40.043M-86.357,69.729C-88.05,61.463 -86.034,56.661 -83.981,54.058C-81.929,51.454 -79.404,50.509 -78.209,50.509C-77.265,50.509 -74.889,50.731 -73.22,52.799C-72.713,53.426 -72.31,54.179 -72.006,55.045C-71.097,57.697 -71.125,61.417 -72.11,65.999C-72.309,66.922 -72.499,67.831 -72.685,68.731L-86.357,69.729ZM-62.322,49.349L-59.161,55.18C-59.104,55.292 -59.049,55.396 -58.992,55.509C-58.124,57.245 -57.373,58.955 -56.73,60.629C-52.236,72.381 -53.083,82.381 -56.289,87.57C-58.104,90.507 -60.717,92.06 -63.844,92.06C-66.594,92.06 -68.519,91.331 -69.729,89.833C-70.128,89.339 -70.45,88.758 -70.706,88.104C-72.489,83.436 -70.942,75.026 -69.151,66.698C-67.995,61.32 -68.041,56.983 -69.279,53.748C-69.689,52.656 -70.231,51.687 -70.911,50.846C-71.162,50.535 -71.424,50.252 -71.692,49.994L-62.322,49.349ZM-60.338,-14.301C-61.955,-7.313 -65.132,1.631 -66.971,6.383L-67.143,6.396L-67.192,6.399C-66.155,-2.609 -64.502,-9.967 -62.899,-15.126L-60.338,-14.301ZM-59.539,-22.945C-59.534,-22.928 -59.528,-22.909 -59.523,-22.891C-59.26,-21.949 -59.279,-20.53 -59.497,-18.809L-61.369,-19.455C-60.681,-21.137 -60.049,-22.325 -59.539,-22.945M-52.937,-11.915C-54.557,-5.572 -55.627,1.796 -56.053,5.587L-63.667,6.142C-62.135,2.095 -59.124,-6.246 -57.485,-13.381L-52.937,-11.915ZM-46.869,-19.851C-46.618,-19.058 -46.843,-17.175 -47.389,-14.636L-48.888,-15.153C-48.153,-17.4 -47.447,-19.046 -46.869,-19.851M-50.09,-10.997L-48.416,-10.457C-49.525,-6.348 -51.087,-1.423 -52.79,3.395C-52.115,-2.008 -51.125,-6.992 -50.09,-10.997M-40.282,-7.835C-41.34,-3.378 -41.963,1.576 -42.274,4.582L-50.234,5.163C-48.923,1.501 -46.952,-4.258 -45.543,-9.531L-40.282,-7.835ZM-34.726,-14.267C-34.635,-14.115 -34.521,-13.891 -34.395,-13.566C-34.14,-12.918 -34.221,-11.72 -34.524,-10.202L-36.314,-10.819C-35.717,-12.613 -35.155,-13.76 -34.726,-14.267M-37.401,-6.906L-35.555,-6.311C-36.493,-3.304 -37.809,0.116 -39.094,3.089C-38.62,-0.951 -38.021,-4.27 -37.401,-6.906M-28.65,-4.085C-29.157,-1.933 -29.586,0.658 -29.937,3.683L-36.28,4.145C-35.244,1.749 -33.772,-1.869 -32.694,-5.389L-28.65,-4.085ZM-23.625,-8.853C-23.489,-8.698 -23.277,-8.396 -23.023,-7.837C-22.952,-7.557 -23.022,-7.02 -23.204,-6.301L-24.701,-6.817C-24.27,-7.945 -23.885,-8.58 -23.625,-8.853M-25.771,-3.157L-24.422,-2.722C-25.055,-1.129 -25.862,0.689 -26.775,2.547C-26.468,0.242 -26.123,-1.632 -25.771,-3.157M-9.238,2.173L-23.767,3.232C-22.999,1.656 -22.205,-0.092 -21.544,-1.794L-9.238,2.173ZM-18.916,-16.889C-13.549,-17.016 -8.065,-16.713 -5.266,-13.323C-1.439,-8.691 -3.34,-3.204 -5.045,-0.042L-6.04,-0.385L-18.916,-16.889ZM-31.446,-20.815C-32.255,-21.586 -31.68,-23.171 -30.655,-25.002L-26.347,-19.703C-28.652,-19.741 -30.584,-19.995 -31.446,-20.815M-28.47,-38.716C-27.114,-36.998 -28.457,-34.246 -30.222,-31.38L-36.273,-39.137C-32.438,-39.673 -29.296,-39.762 -28.47,-38.716M13.626,6.393L-2.169,0.949C0.062,-3.481 1.431,-9.926 -2.953,-15.233C-7.062,-20.209 -14.504,-20.066 -21.201,-19.819L-28.259,-28.864C-25.768,-32.785 -23.364,-37.088 -26.114,-40.574C-27.945,-42.893 -32.517,-42.811 -38.396,-41.859L-43.423,-48.301C-43.386,-48.427 -43.333,-48.546 -43.307,-48.676C-43.05,-49.928 -43.295,-51.204 -43.997,-52.27C-45.447,-54.473 -48.419,-55.084 -50.621,-53.634C-52.823,-52.183 -53.435,-49.212 -51.984,-47.01C-51.281,-45.943 -50.206,-45.214 -48.955,-44.956C-48.631,-44.89 -48.305,-44.856 -47.98,-44.856C-47.616,-44.856 -47.258,-44.91 -46.906,-44.993L-43.576,-40.896C-44.931,-40.622 -46.32,-40.33 -47.741,-40.029C-55.127,-38.47 -66.293,-36.111 -67.529,-38.659C-67.892,-39.404 -68.787,-39.716 -69.534,-39.353C-70.279,-38.991 -70.59,-38.094 -70.229,-37.349C-67.965,-32.692 -58.306,-34.733 -47.121,-37.095C-45.333,-37.472 -43.381,-37.884 -41.433,-38.26L-32.675,-27.487C-34.593,-24.296 -35.988,-20.999 -33.515,-18.644C-31.55,-16.773 -28.062,-16.613 -23.927,-16.725L-12.436,-2.589L-20.386,-5.33C-20.004,-6.885 -19.902,-8.203 -20.271,-9.024C-21.488,-11.729 -22.969,-12.102 -24.009,-11.935C-25.38,-11.715 -26.556,-10.319 -27.537,-7.794L-31.694,-9.227C-31.237,-11.468 -31.114,-13.426 -31.602,-14.664C-32.607,-17.225 -33.995,-17.596 -34.988,-17.456C-36.721,-17.21 -38.088,-14.908 -39.157,-11.799L-44.545,-13.656C-43.851,-16.945 -43.574,-19.677 -44.104,-21.024C-44.957,-23.194 -46.292,-23.351 -47.01,-23.247C-48.819,-22.991 -50.398,-20.08 -51.716,-16.127L-56.64,-17.825C-56.299,-20.231 -56.241,-22.295 -56.635,-23.699C-57.32,-26.146 -58.714,-26.406 -59.482,-26.336C-61.08,-26.2 -62.684,-23.959 -64.166,-20.418L-70.82,-22.712C-70.858,-22.838 -70.879,-22.966 -70.928,-23.09C-71.394,-24.279 -72.295,-25.216 -73.464,-25.727C-74.635,-26.238 -75.935,-26.263 -77.124,-25.798C-78.313,-25.332 -79.25,-24.431 -79.762,-23.261C-80.816,-20.845 -79.71,-18.02 -77.295,-16.964C-76.681,-16.696 -76.031,-16.561 -75.382,-16.561C-74.792,-16.561 -74.201,-16.672 -73.636,-16.894C-72.981,-17.15 -72.414,-17.549 -71.941,-18.041L-65.74,-16.042C-67.793,-9.497 -69.473,-0.707 -70.352,7.696C-76.271,24.315 -71.696,32.462 -64.778,44.767C-64.474,45.308 -64.154,45.879 -63.837,46.446L-78.338,47.445C-78.497,47.456 -78.646,47.498 -78.786,47.554C-80.974,47.775 -83.992,49.226 -86.338,52.2C-88.901,55.452 -91.445,61.47 -88.999,71.668C-88.827,72.383 -88.178,72.878 -87.431,72.814L-73.287,71.783C-74.472,78.101 -75.049,83.663 -73.943,87.816C-73.909,87.948 -73.877,88.083 -73.839,88.212C-73.787,88.388 -73.729,88.557 -73.669,88.727C-73.584,88.977 -73.492,89.222 -73.393,89.46C-73.354,89.552 -73.314,89.643 -73.273,89.733C-72.938,90.479 -72.534,91.17 -72.037,91.786C-70.249,93.999 -67.49,95.123 -63.836,95.127L-63.805,95.127C-63.234,95.126 -62.675,95.086 -62.128,95.008L1.017,90.403C5.153,90.385 8.721,88.286 11.066,84.491C16.002,76.506 14.958,62.421 8.47,49.442C6.412,45.328 4.396,41.739 2.615,38.573C-3.742,27.263 -7.481,20.546 -3.959,7.837L9.173,23.991C9.47,24.355 9.901,24.545 10.338,24.545C10.665,24.545 10.995,24.439 11.271,24.219C11.915,23.706 12.025,22.771 11.52,22.122L-2.299,4.41L12.677,9.238C12.829,9.287 12.984,9.311 13.137,9.311C13.766,9.311 14.351,8.913 14.56,8.285C14.82,7.505 14.403,6.66 13.626,6.393" style="fill:rgb(55,137,95);fill-rule:nonzero;"/>
                    </g>
                </g>
            </g>
            <g transform="matrix(1.0287,0,0,1.18931,935.743,267.232)">
                <text x="290.192px" y="182.295px" style="font-family:'SpaceMono-Bold', 'Space Mono', monospace;font-weight:700;font-size:166.806px;fill:rgb(55,137,95);">Yarn Spinner</text>
            </g>
            <g transform="matrix(0.976732,0,0,1.12922,927.491,403.169)">
                <text x="309.269px" y="244.711px" style="font-family:'SpaceMono-Regular', 'Space Mono', monospace;font-size:89.166px;fill:rgb(55,137,95);">The friendly tool</text>
                <text x="309.269px" y="333.877px" style="font-family:'SpaceMono-Regular', 'Space Mono', monospace;font-size:89.166px;fill:rgb(55,137,95);">for writing game dialogue</text>
            </g>
        </g>
    </g>
</svg>
